<svg width="9" height="9" viewBox="0 0 9 9" fill="none" xmlns="http://www.w3.org/2000/svg">
<mask id="path-1-inside-1" fill="white">
<path d="M9 9C7.8181 9 6.64778 8.76721 5.55585 8.31492C4.46392 7.86262 3.47177 7.19969 2.63604 6.36396C1.80031 5.52823 1.13738 4.53608 0.685083 3.44415C0.232791 2.35222 -4.45065e-07 1.1819 -3.93402e-07 -7.86805e-07L3.00439 -6.55479e-07C3.00439 0.787355 3.15947 1.567 3.46077 2.29442C3.76208 3.02184 4.20372 3.68279 4.76046 4.23954C5.3172 4.79628 5.97816 5.23792 6.70558 5.53922C7.433 5.84053 8.21264 5.99561 9 5.99561L9 9Z"/>
</mask>
<path d="M9 9C7.8181 9 6.64778 8.76721 5.55585 8.31492C4.46392 7.86262 3.47177 7.19969 2.63604 6.36396C1.80031 5.52823 1.13738 4.53608 0.685083 3.44415C0.232791 2.35222 -4.45065e-07 1.1819 -3.93402e-07 -7.86805e-07L3.00439 -6.55479e-07C3.00439 0.787355 3.15947 1.567 3.46077 2.29442C3.76208 3.02184 4.20372 3.68279 4.76046 4.23954C5.3172 4.79628 5.97816 5.23792 6.70558 5.53922C7.433 5.84053 8.21264 5.99561 9 5.99561L9 9Z" stroke="white" stroke-width="6" mask="url(#path-1-inside-1)"/>
</svg>
